<?xml version="1.0" standalone="no"?>
<!DOCTYPE svg PUBLIC "-//W3C//DTD SVG 20010904//EN"
 "http://www.w3.org/TR/2001/REC-SVG-20010904/DTD/svg10.dtd">
<svg version="1.0" xmlns="http://www.w3.org/2000/svg"
 width="454.000000pt" height="454.000000pt" viewBox="0 0 454.000000 454.000000"
 preserveAspectRatio="xMidYMid meet">

<g transform="translate(0.000000,454.000000) scale(0.100000,-0.100000)"
fill="#000000" stroke="none">
<path d="M0 2270 l0 -2270 515 0 c453 0 514 2 509 15 -4 9 0 15 10 15 9 0 16
-4 16 -10 0 -13 37 -13 45 0 4 6 17 4 35 -5 16 -8 35 -15 42 -15 7 1 -5 10
-27 22 -25 13 -60 22 -92 22 -29 1 -53 4 -53 7 0 3 16 13 35 22 19 9 35 20 35
25 0 4 18 6 39 4 25 -3 56 4 87 18 l49 22 -30 14 c-16 7 -38 13 -47 14 -9 0
-30 8 -47 18 -30 17 -32 16 -71 -6 -22 -12 -40 -21 -40 -19 0 3 9 33 20 67 21
65 25 100 13 100 -5 0 -23 -9 -42 -21 -18 -11 -35 -19 -36 -17 -5 5 50 169 70
211 10 20 24 37 31 37 47 0 191 -91 293 -186 41 -38 69 -60 63 -49 -36 66
-223 207 -319 240 l-34 12 63 41 c58 37 67 40 114 35 46 -5 52 -3 57 16 3 11
11 21 17 21 7 0 10 -8 7 -20 -5 -18 0 -20 41 -20 26 0 57 -3 70 -6 16 -5 22
-2 22 10 0 9 5 16 10 16 6 0 10 -7 10 -15 0 -19 16 -19 69 0 39 13 43 13 62
-6 11 -11 25 -34 31 -50 5 -16 19 -34 29 -40 10 -5 19 -16 19 -24 0 -8 12 -22
26 -32 14 -9 39 -29 54 -45 16 -15 35 -28 43 -28 8 0 22 -9 32 -20 10 -11 33
-22 52 -26 20 -4 51 -23 75 -46 40 -39 41 -39 62 -20 55 51 186 53 234 5 l25
-25 -7 -139 -7 -139 41 0 c22 0 40 4 40 9 0 12 -29 23 -41 15 -11 -6 -12 27
-1 41 4 6 18 10 32 10 21 0 25 5 25 30 0 26 -3 30 -28 30 -26 -1 -28 1 -23 28
3 16 6 40 6 52 0 17 5 22 18 18 10 -2 24 2 31 11 17 21 4 56 -20 56 -30 0 -13
19 35 40 46 21 90 17 109 -9 28 -39 32 -28 32 77 0 97 3 113 31 177 l31 70 75
10 c57 8 74 13 70 24 -3 10 0 12 12 8 9 -4 16 -2 16 3 0 5 16 2 35 -7 42 -20
40 -26 -3 -14 -17 5 -34 6 -37 1 -7 -11 20 -20 57 -20 16 0 45 -7 64 -16 35
-17 68 -75 109 -191 19 -52 19 -53 -3 -120 -23 -70 -29 -176 -13 -202 6 -9 16
-11 27 -7 16 6 15 3 -4 -17 -22 -23 -28 -60 -16 -91 11 -29 20 -16 16 24 -3
32 1 46 22 71 31 37 34 54 7 39 -11 -5 -24 -10 -30 -10 -17 0 -13 131 6 186
l17 49 13 -50 c20 -76 43 -224 43 -277 l0 -48 730 0 730 0 0 2270 0 2270
-2270 0 -2270 0 0 -2270z m1779 705 c76 -27 130 -76 231 -210 101 -135 178
-215 206 -215 10 0 1 12 -24 30 -23 16 -46 39 -52 50 -9 17 -7 22 17 32 39 16
227 13 285 -5 27 -8 45 -11 42 -6 -6 10 38 3 102 -16 29 -9 47 -9 60 -2 18 10
18 10 1 -16 -27 -42 -20 -44 21 -6 20 20 62 50 93 67 31 17 98 58 149 91 77
51 99 61 135 61 49 0 75 -8 75 -22 0 -6 -6 -5 -15 2 -10 8 -32 11 -61 7 -93
-10 -272 -163 -296 -253 l-12 -44 -81 6 c-93 8 -271 -9 -393 -35 l-82 -18 -69
72 c-38 41 -93 115 -126 171 -91 154 -200 255 -276 254 -17 0 -8 -8 37 -30 77
-37 151 -116 226 -241 32 -51 69 -108 84 -126 l25 -31 -45 0 c-50 1 -69 -8
-46 -22 12 -7 11 -10 -5 -16 -80 -28 -185 -93 -185 -114 0 -6 21 5 48 24 50
37 140 76 172 76 23 0 25 10 8 29 -11 11 -5 12 32 6 39 -7 100 -40 100 -54 0
-3 -33 -16 -73 -29 -93 -29 -256 -108 -346 -166 -65 -42 -70 -44 -76 -25 -9
27 36 94 81 121 18 11 32 24 29 28 -3 4 2 11 11 14 9 4 14 9 10 13 -3 3 11 15
31 25 25 11 29 16 13 12 -40 -9 -80 -26 -80 -34 0 -4 -23 -32 -50 -61 -28 -30
-54 -65 -57 -78 -5 -21 -8 -16 -20 30 -8 30 -18 88 -22 131 -6 75 -6 77 20 92
14 9 32 30 39 47 12 27 11 36 -1 58 -10 16 -23 26 -37 25 -12 0 -22 4 -22 10
0 6 -5 3 -11 -7 -8 -13 -6 -21 5 -33 20 -19 20 -38 2 -53 -12 -10 -15 -4 -21
31 -21 122 11 276 70 335 37 37 61 40 124 18z m1322 -197 c7 -13 10 -52 7
-102 -3 -68 -10 -91 -38 -146 -19 -36 -40 -71 -47 -78 -7 -7 -13 -20 -13 -28
0 -21 -8 -17 -41 21 -17 19 -37 35 -44 35 -7 0 -30 14 -51 30 -22 17 -48 37
-59 45 -10 8 -25 15 -32 15 -7 0 -13 5 -13 11 0 21 164 175 210 197 59 29 106
29 121 0z m26 -20 c-3 -7 -5 -2 -5 12 0 14 2 19 5 13 2 -7 2 -19 0 -25z
m-1604 -112 c-10 -13 -20 -22 -22 -20 -4 4 29 44 36 44 2 0 -4 -11 -14 -24z
m135 -1 c14 -31 2 -67 -30 -89 -27 -19 -101 -21 -117 -3 -17 21 -1 28 24 11
49 -32 104 13 92 75 -8 39 14 43 31 6z m-143 -52 c-11 -3 -26 -12 -32 -21 -7
-9 -13 -11 -13 -6 0 17 23 34 45 33 20 -1 20 -1 0 -6z m1275 -53 c0 -6 10 -15
23 -20 l22 -9 -22 0 c-31 -1 -53 9 -53 25 0 8 7 14 15 14 8 0 15 -5 15 -10z
m-1324 -37 c-10 -10 -19 5 -10 18 6 11 8 11 12 0 2 -7 1 -15 -2 -18z m1324
-18 c120 -20 155 -38 197 -99 28 -40 66 -135 58 -144 -1 -1 -31 9 -66 22 -136
51 -209 61 -434 61 -222 0 -276 -7 -463 -61 -93 -27 -136 -45 -277 -114 -94
-46 -124 -65 -240 -147 -25 -18 -45 -28 -45 -22 0 74 252 239 465 304 102 32
100 45 -3 21 -116 -26 -230 -80 -349 -164 -35 -24 -63 -40 -63 -36 0 25 225
180 355 243 116 57 272 107 395 126 58 9 112 18 120 19 45 10 268 4 350 -9z
m280 -25 c0 -11 -6 -20 -14 -20 -9 0 -12 7 -9 20 3 11 9 20 14 20 5 0 9 -9 9
-20z m-1570 0 c0 -5 -2 -10 -4 -10 -3 0 -8 5 -11 10 -3 6 -1 10 4 10 6 0 11
-4 11 -10z m-38 -52 c-8 -8 -9 -4 -5 13 4 13 8 18 11 10 2 -7 -1 -18 -6 -23z
m1570 -13 c-2 -14 -6 -25 -8 -25 -2 0 -4 11 -4 25 0 14 4 25 9 25 4 0 6 -11 3
-25z m-1512 -195 c0 -19 -7 -28 -29 -37 l-29 -10 -5 61 c-4 33 -9 86 -12 116
l-6 55 40 -80 c23 -44 41 -91 41 -105z m20 58 c0 -29 -8 -21 -35 35 l-26 52
30 -35 c17 -19 31 -43 31 -52z m1141 41 c117 -11 191 -28 297 -65 l72 -26 0
-85 c0 -62 -3 -82 -12 -77 -8 5 -9 2 -4 -12 21 -55 36 -149 36 -231 0 -91 -1
-93 -23 -93 -13 0 -46 -7 -72 -15 l-48 -14 -40 45 c-22 25 -42 43 -45 40 -2
-3 12 -24 32 -46 20 -22 36 -42 36 -45 0 -2 -21 -16 -47 -31 -60 -34 -126 -85
-119 -91 3 -3 14 4 26 15 36 33 141 85 151 75 5 -5 12 -26 16 -45 5 -34 3 -36
-26 -43 -17 -3 -35 -4 -41 0 -5 3 -10 2 -10 -4 0 -5 -15 -13 -32 -17 -28 -6
-30 -8 -13 -14 11 -4 22 -4 25 0 3 4 26 12 53 18 l47 10 0 -45 c0 -42 -2 -45
-23 -39 -13 3 -50 8 -82 10 l-60 5 75 -15 c41 -9 77 -17 79 -19 1 -2 -7 -21
-19 -43 -53 -95 -158 -97 -257 -6 l-42 39 7 58 c7 57 8 59 45 72 49 17 87 52
87 80 0 75 -184 125 -256 70 -11 -8 -24 -15 -31 -15 -17 0 -33 56 -33 117 0
30 -4 52 -9 49 -4 -3 -11 21 -14 54 -13 152 -148 261 -272 220 -37 -12 -105
-65 -105 -81 0 -16 22 -9 41 14 19 22 19 22 4 -15 -45 -112 30 -218 154 -218
54 0 113 19 143 47 17 15 18 14 18 -16 0 -19 4 -30 10 -26 6 4 10 -12 10 -41
0 -33 10 -69 35 -120 35 -75 58 -97 123 -119 41 -14 48 -33 37 -92 -5 -30 -13
-38 -61 -59 -88 -39 -177 -49 -254 -30 -84 22 -100 35 -65 54 15 7 33 11 41 8
8 -3 12 -2 9 3 -6 11 20 21 90 32 l50 8 -62 -3 c-39 -3 -83 -14 -117 -29 l-56
-26 -30 37 c-16 20 -29 41 -27 47 2 5 30 13 63 17 66 8 186 0 179 -12 -3 -5 5
-6 17 -2 21 5 21 5 -3 14 -39 15 -160 21 -216 10 -29 -5 -53 -5 -53 -1 0 5 -5
9 -11 9 -5 0 -8 -4 -5 -8 3 -5 -26 -18 -64 -30 -37 -13 -73 -29 -79 -36 -8 -9
12 -5 54 10 36 13 74 24 83 23 9 0 31 -19 47 -42 l30 -41 -35 -34 c-36 -34
-26 -34 22 1 l26 19 59 -28 c46 -23 72 -29 124 -29 l66 0 -25 -60 c-13 -33
-28 -71 -33 -85 -8 -21 -16 -26 -52 -27 -23 0 -73 3 -112 9 -38 5 -105 13
-148 18 -100 12 -188 53 -267 127 -33 30 -60 60 -60 66 0 6 12 -1 28 -15 30
-29 110 -73 118 -66 3 3 -17 19 -44 37 -26 17 -59 42 -72 56 -13 14 -30 25
-37 25 -8 0 -16 7 -19 15 -4 8 -12 15 -19 15 -18 0 -90 150 -115 240 -11 41
-23 112 -27 156 l-6 82 84 62 c198 147 514 263 789 289 124 12 157 12 271 0z
m-1029 -74 c0 -6 -15 -21 -33 -35 l-32 -25 24 37 c22 35 40 45 41 23z m-105
-57 c-3 -7 -5 -2 -5 12 0 14 2 19 5 13 2 -7 2 -19 0 -25z m3 -38 c0 -4 -9 -15
-20 -25 -11 -10 -22 -25 -25 -34 -3 -10 -18 -17 -40 -18 -30 -1 -34 1 -26 16
13 24 30 36 66 49 29 10 29 10 5 12 -23 1 -23 2 -5 9 21 9 45 4 45 -9z m715
-19 c51 -23 101 -79 116 -132 16 -50 8 -65 -51 -96 -86 -46 -199 -23 -235 47
-31 60 -8 160 43 190 27 15 83 11 127 -9z m-723 -41 c-12 -12 -22 -18 -22 -14
0 12 33 45 38 39 3 -3 -4 -14 -16 -25z m-42 -40 c0 -5 -15 -10 -32 -10 -25 0
-29 3 -18 10 20 13 50 13 50 0z m0 -34 c0 -7 -12 -16 -28 -19 -38 -8 -79 -42
-102 -85 -22 -43 -84 -117 -72 -87 42 103 82 184 96 192 5 4 6 0 1 -7 -6 -10
-4 -11 11 -5 18 7 70 22 87 24 4 1 7 -5 7 -13z m0 -60 c0 -75 -104 -177 -195
-191 l-40 -6 36 33 c20 18 55 61 79 96 36 55 88 102 113 102 4 0 7 -15 7 -34z
m1187 -236 c17 -10 37 -29 43 -41 10 -18 9 -25 -9 -42 -18 -18 -21 -19 -21 -5
0 28 -17 29 -48 3 l-30 -25 -28 25 c-19 17 -38 25 -64 25 -66 0 -76 46 -15 70
40 17 138 11 172 -10z m373 -32 c0 -13 -5 -40 -11 -60 -9 -36 -12 -38 -52 -38
-42 0 -43 0 -53 45 l-10 45 40 11 c23 5 46 12 51 14 24 9 35 3 35 -17z m-30
-127 c0 -5 -9 -30 -20 -56 -18 -42 -22 -45 -41 -35 -12 7 -18 17 -15 27 3 8 6
28 6 44 0 27 3 29 35 29 19 0 35 -4 35 -9z m-68 -142 c-40 -64 -121 -145 -170
-172 l-52 -28 0 58 0 58 59 0 c52 0 64 4 90 29 16 15 35 41 41 57 8 18 20 29
32 29 20 0 20 0 0 -31z m-310 -24 c28 -25 53 -45 57 -45 4 0 6 -44 5 -97 -1
-54 1 -89 3 -79 9 34 63 -153 63 -216 0 -31 5 -60 10 -63 6 -3 10 -12 9 -18 0
-9 -2 -8 -6 1 -2 6 -10 9 -15 6 -7 -5 -8 -2 -3 6 6 10 4 12 -8 7 -13 -5 -14
-2 -6 23 6 16 9 41 6 57 -4 25 -4 24 -6 -7 0 -20 -8 -46 -17 -58 -8 -12 -12
-22 -8 -22 4 0 5 -2 2 -5 -10 -10 -231 -47 -310 -52 -76 -5 -78 -5 -90 22 -10
22 -9 35 5 75 9 26 17 58 16 71 0 13 -9 -7 -20 -46 -11 -38 -18 -80 -16 -92 3
-15 0 -20 -10 -16 -19 7 -16 34 16 153 27 97 29 102 33 65 5 -40 5 -40 6 8 1
27 7 58 13 70 10 22 10 22 -7 2 -16 -19 -16 -19 -11 12 4 18 18 58 32 90 23
51 27 46 10 -14 -3 -10 2 -3 11 16 8 19 14 45 11 58 -2 12 -1 21 2 19 3 -2 17
11 30 28 l25 31 -27 -24 c-15 -14 -27 -20 -27 -14 0 17 24 32 76 48 27 8 58
21 69 29 11 9 22 16 24 16 1 0 26 -20 53 -45z m-732 -159 c54 -24 158 -41 342
-55 42 -3 79 -9 83 -12 3 -4 -9 -69 -27 -145 -25 -105 -38 -143 -55 -158 -13
-11 -23 -31 -23 -46 0 -42 32 -63 108 -70 65 -6 66 -6 27 -14 -22 -4 -51 -14
-65 -22 l-25 -15 30 5 c17 3 60 11 98 17 37 7 70 9 73 6 7 -7 -73 -192 -89
-206 -7 -5 -52 -8 -102 -7 l-90 1 -83 66 c-46 37 -142 101 -215 144 -268 158
-260 149 -215 238 34 67 80 206 98 289 l11 58 33 -25 c17 -13 56 -35 86 -49z
m-282 -393 c-5 -18 -6 -38 -3 -43 7 -12 3 -12 -19 -4 -9 3 -16 14 -17 23 0 13
-2 12 -10 -4 l-9 -20 3 20 c2 14 9 20 25 19 23 -1 30 10 12 21 -17 10 -11 24
9 22 16 -1 17 -5 9 -34z m27 8 c3 -5 1 -12 -5 -16 -5 -3 -10 1 -10 9 0 18 6
21 15 7z m978 -8 c-25 -5 -21 -32 6 -34 9 0 3 -5 -13 -10 -17 -4 -32 -6 -35
-4 -2 3 0 5 6 5 6 0 8 11 5 25 -4 22 -1 25 24 24 23 -1 24 -3 7 -6z m-944 -27
c9 -8 70 -45 136 -82 140 -78 278 -170 319 -213 l30 -31 -43 0 c-23 0 -52 -5
-64 -11 -36 -20 -118 -15 -169 9 -63 31 -70 41 -58 83 15 50 12 70 -11 109
l-21 34 -14 -27 -15 -27 -28 33 c-15 17 -35 46 -44 62 -16 29 -17 30 -23 7 -6
-22 -8 -22 -25 -6 -22 20 -24 45 -7 62 15 15 18 15 37 -2z m841 -6 c0 -11 -5
-20 -11 -20 -5 0 -7 5 -3 11 3 6 0 15 -7 20 -11 7 -10 9 4 9 10 0 17 -8 17
-20z m-121 -19 c-27 -22 -32 -21 -23 3 3 9 15 16 26 16 19 0 19 -1 -3 -19z
m-778 -28 c16 -19 18 -23 4 -12 -11 9 -29 21 -40 27 -15 9 -16 11 -4 12 8 0
26 -12 40 -27z m1029 7 c11 -7 5 -10 -22 -10 -21 0 -38 5 -38 10 0 13 40 13
60 0z m-1090 -52 c0 -4 -15 3 -34 15 -31 20 -31 22 -12 28 19 5 44 -19 46 -43z
m36 37 c16 -12 16 -14 3 -15 -9 0 -22 7 -29 15 -16 19 0 19 26 0z m872 -2
c-10 -2 -26 -2 -35 0 -10 3 -2 5 17 5 19 0 27 -2 18 -5z m46 -8 c-4 -8 -8 -15
-10 -15 -2 0 -4 7 -4 15 0 8 4 15 10 15 5 0 7 -7 4 -15z m64 -10 c1 -13 -3
-27 -8 -30 -5 -3 -7 -11 -4 -18 5 -15 -43 -64 -53 -54 -3 4 -15 0 -25 -10 -24
-22 -24 1 1 26 11 11 17 22 14 24 -12 12 19 47 40 44 13 -1 23 4 23 13 4 39 9
41 12 5z m152 5 c13 -8 12 -10 -2 -10 -10 0 -18 -6 -18 -14 0 -9 -20 -15 -62
-20 -34 -3 -62 -5 -64 -4 -1 2 0 15 3 31 5 26 8 27 67 27 33 0 68 -5 76 -10z
m-1109 -39 c15 -6 18 -10 8 -10 -9 -1 -25 7 -36 17 -10 9 -14 14 -8 10 6 -4
22 -12 36 -17z m23 23 c9 -4 22 -16 28 -28 10 -20 10 -20 -8 -5 -10 9 -28 21
-39 27 -21 12 -7 16 19 6z m14 -84 c13 0 12 3 -4 15 -19 14 -19 14 2 15 11 0
33 -13 49 -30 16 -16 24 -30 18 -30 -6 0 -16 7 -23 15 -8 9 -21 13 -35 9 -24
-6 -75 20 -75 38 0 5 12 0 26 -11 15 -12 34 -21 42 -21z m139 18 c-3 -8 -6 -5
-6 6 -1 11 2 17 5 13 3 -3 4 -12 1 -19z m3 -49 c0 -11 -4 -17 -10 -14 -5 3
-10 13 -10 21 0 8 5 14 10 14 6 0 10 -9 10 -21z m-98 -39 c17 0 19 -3 9 -9
-19 -12 -49 -2 -66 22 -23 33 -18 39 10 12 13 -14 34 -25 47 -25z m52 9 c15
-12 25 -24 22 -26 -3 -3 -12 2 -21 11 -9 9 -25 16 -35 16 -10 0 -22 5 -25 10
-11 18 32 10 59 -11z m730 11 c-29 -12 -40 -30 -23 -41 10 -6 9 -9 -6 -15 -11
-4 -28 -14 -37 -22 -12 -10 -18 -11 -18 -3 0 6 11 16 25 23 13 6 22 15 19 20
-8 13 26 48 45 47 11 0 9 -3 -5 -9z m7 -60 c-13 -11 -31 -20 -40 -20 -9 1 -1
9 19 20 45 24 51 24 21 0z m-680 -11 c23 -19 23 -20 2 -10 -12 6 -31 11 -42
11 -11 0 -23 5 -26 10 -12 19 43 10 66 -11z m-56 -9 c23 -6 26 -9 13 -14 -9
-4 -30 0 -47 9 -33 16 -43 32 -13 20 9 -4 31 -11 47 -15z m45 -20 c0 -5 -5
-10 -11 -10 -5 0 -7 5 -4 10 3 6 8 10 11 10 2 0 4 -4 4 -10z m86 -16 c19 -15
19 -15 -1 -5 -11 5 -33 7 -49 4 -20 -4 -27 -2 -22 6 10 16 49 14 72 -5z m450
1 c-3 -8 2 -19 12 -24 16 -10 16 -10 0 -11 -9 0 -20 5 -23 10 -3 6 -11 10 -16
10 -6 0 -7 -4 -4 -10 3 -6 -1 -7 -9 -4 -9 3 -16 10 -16 15 0 5 -5 9 -11 9 -5
0 -7 -4 -4 -10 12 -19 -32 -10 -50 10 -18 20 -17 20 55 20 59 0 71 -3 66 -15z
m83 11 c-2 -2 -20 -6 -39 -10 -25 -4 -31 -3 -20 4 14 9 69 15 59 6z m69 -80
c-3 -24 -3 -24 -43 11 -22 19 -35 33 -30 30 6 -3 24 6 40 19 l30 24 3 -30 c2
-17 2 -41 0 -54z m-407 60 c-7 -8 -11 -20 -9 -28 1 -7 -2 -14 -7 -16 -17 -5
-17 25 0 42 20 20 32 21 16 2z m113 -7 c14 -11 26 -25 26 -30 0 -5 -9 0 -20
11 -13 13 -33 20 -56 20 -21 0 -33 4 -29 10 10 17 51 11 79 -11z m-349 -9 c-8
-13 -35 -13 -55 0 -11 7 -5 10 23 10 23 0 36 -4 32 -10z m118 -1 c7 -1 -4 -5
-23 -9 -19 -5 -37 -6 -40 -4 -8 8 24 24 38 19 8 -3 19 -5 25 -6z m53 -14 c-31
-29 -36 -30 -36 -12 0 8 10 19 23 25 37 18 41 13 13 -13z m369 15 c3 -5 1 -10
-4 -10 -6 0 -11 5 -11 10 0 6 2 10 4 10 3 0 8 -4 11 -10z m-261 -16 c3 -8 2
-12 -4 -9 -6 3 -10 10 -10 16 0 14 7 11 14 -7z m51 6 c9 -15 -22 -60 -40 -60
-19 0 -19 10 0 34 8 10 12 23 9 27 -3 5 2 9 10 9 8 0 18 -5 21 -10z m-305 -10
c0 -5 -5 -10 -11 -10 -5 0 -7 5 -4 10 3 6 8 10 11 10 2 0 4 -4 4 -10z m415 -1
c11 -17 -1 -21 -15 -4 -8 9 -8 15 -2 15 6 0 14 -5 17 -11z m-345 -9 c0 -16
-35 -29 -60 -23 -21 6 -21 7 11 18 44 16 49 17 49 5z m170 -15 c0 -24 -30 -45
-63 -45 l-32 1 32 14 c17 7 34 23 38 34 7 22 25 19 25 -4z m208 0 c-3 -3 -9 2
-12 12 -6 14 -5 15 5 6 7 -7 10 -15 7 -18z m53 14 c-16 -6 -28 -6 -35 1 -7 7
1 10 25 9 32 0 33 -1 10 -10z m-363 -40 c-7 -5 -31 -8 -53 -8 l-40 1 40 8 c22
4 44 15 50 24 9 15 10 15 13 0 2 -9 -2 -20 -10 -25z m205 16 c-5 -15 24 -28
39 -18 7 3 8 1 4 -5 -9 -15 -39 -15 -54 0 -16 16 -15 35 2 35 8 0 12 -6 9 -12z
m94 -13 c-23 -5 -47 4 -47 17 0 6 13 5 33 -2 23 -8 27 -12 14 -15z m-1308
-116 c-13 -36 -49 -57 -49 -28 0 16 50 75 58 68 2 -3 -2 -20 -9 -40z m1351 18
c0 -8 -4 -12 -10 -9 -5 3 -10 10 -10 16 0 5 5 9 10 9 6 0 10 -7 10 -16z
m-1254 -89 c18 -14 17 -14 -12 -15 -17 0 -53 -11 -80 -25 -55 -28 -54 -28 -54
-17 0 12 56 42 80 42 11 0 19 4 16 9 -5 8 7 18 25 20 3 1 14 -6 25 -14z m81
-39 c-23 -18 -98 -29 -110 -17 -19 19 6 31 66 31 54 -1 60 -2 44 -14z m-134
-16 c-10 -36 -83 -62 -83 -30 0 9 66 49 82 50 3 0 4 -9 1 -20z m1307 -16 c0
-8 -4 -14 -10 -14 -5 0 -10 9 -10 21 0 11 5 17 10 14 6 -3 10 -13 10 -21z"/>
<path d="M2815 2146 c-40 -18 -80 -62 -99 -108 -16 -38 -21 -114 -10 -155 9
-33 22 -28 16 5 -5 27 -5 27 16 8 27 -24 90 -25 124 -2 33 22 58 73 58 121 0
44 -13 72 -48 103 l-27 24 27 -6 c14 -3 33 -9 42 -12 16 -6 23 11 8 20 -21 13
-80 14 -107 2z m69 -68 c25 -27 28 -37 23 -75 -5 -49 -42 -97 -83 -107 -33 -9
-92 18 -103 47 -18 46 20 144 63 166 31 15 68 4 100 -31z"/>
<path d="M2823 2053 l2 -38 -40 1 -39 2 23 -19 c13 -11 30 -19 38 -19 10 0 13
-5 8 -17 -12 -29 -11 -46 3 -50 8 -3 18 8 25 26 6 18 19 31 32 33 23 3 28 33
5 33 -9 0 -19 16 -25 39 -14 54 -35 59 -32 9z"/>
<path d="M2030 1650 c-70 -9 -155 -29 -148 -36 3 -2 31 1 64 7 32 7 106 12
164 12 118 0 191 -17 280 -64 53 -29 54 -29 25 -4 -16 14 -55 35 -85 46 -56
21 -188 50 -218 48 -10 -1 -46 -5 -82 -9z"/>
<path d="M2201 2028 l3 -53 -37 3 c-27 3 -37 0 -37 -11 0 -18 21 -27 61 -27
22 0 32 -7 44 -30 9 -16 22 -30 30 -30 17 0 21 35 5 45 -19 11 -10 23 24 35
33 10 64 36 55 45 -3 2 -26 -3 -53 -12 -55 -18 -62 -14 -72 50 -10 56 -26 45
-23 -15z"/>
<path d="M2535 1349 c-4 -6 -5 -12 -2 -15 2 -3 7 2 10 11 7 17 1 20 -8 4z"/>
<path d="M2571 1336 c-51 -54 3 -141 66 -106 14 8 31 22 36 31 16 25 0 67 -33
84 -38 20 -43 19 -69 -9z m75 -61 c-1 -8 -5 -17 -8 -21 -5 -4 -4 16 1 34 3 9
9 -1 7 -13z"/>
<path d="M2451 1293 c-1 -7 8 -17 19 -23 14 -7 20 -7 20 0 0 5 -6 10 -14 10
-8 0 -17 6 -19 13 -4 9 -6 9 -6 0z"/>
<path d="M2502 1275 c0 -16 2 -22 5 -12 2 9 2 23 0 30 -3 6 -5 -1 -5 -18z"/>
<path d="M2474 1231 c1 -22 26 -26 26 -4 0 14 -2 15 -9 4 -8 -12 -10 -12 -13
0 -4 12 -5 12 -4 0z"/>
<path d="M2701 1224 c0 -11 3 -14 6 -6 3 7 2 16 -1 19 -3 4 -6 -2 -5 -13z"/>
<path d="M2445 1190 c-12 -19 10 -32 51 -28 27 2 39 8 39 18 0 19 -79 27 -90
10z"/>
<path d="M2652 1188 c-7 -7 -12 -21 -12 -32 0 -18 -2 -18 -10 -6 -8 11 -9 7
-4 -15 10 -42 12 -42 20 1 4 22 12 42 18 46 6 4 8 9 5 12 -3 3 -11 0 -17 -6z"/>
<path d="M2630 1075 c0 -8 4 -15 10 -15 5 0 7 7 4 15 -4 8 -8 15 -10 15 -2 0
-4 -7 -4 -15z"/>
<path d="M2426 1064 c-40 -39 -25 -115 23 -122 30 -5 71 34 71 68 0 58 -58 91
-94 54z m58 -53 c3 -5 -1 -11 -9 -14 -9 -4 -12 -1 -8 9 6 16 10 17 17 5z"/>
<path d="M2737 1046 c-4 -10 -5 -21 -2 -24 9 -9 17 6 13 25 -3 17 -4 17 -11
-1z"/>
<path d="M2624 1018 c-11 -17 66 -80 89 -74 11 3 17 0 14 -7 -2 -7 -12 -11
-21 -9 -14 3 -16 -2 -11 -20 6 -22 6 -22 -9 -4 -9 11 -16 25 -16 32 0 6 -11
14 -25 16 -13 3 -22 1 -19 -3 3 -5 11 -9 18 -9 7 0 20 -16 29 -36 16 -33 37
-39 37 -9 0 7 5 15 11 17 7 2 13 26 15 53 2 28 0 42 -4 32 -7 -16 -10 -16 -42
8 -37 28 -55 31 -66 13z"/>
<path d="M2388 954 c3 -25 8 -34 18 -30 11 4 14 -5 14 -34 0 -22 5 -40 10 -40
6 0 10 10 10 23 0 38 -12 67 -26 67 -8 0 -14 9 -14 19 0 11 -4 22 -8 25 -4 2
-6 -11 -4 -30z"/>
<path d="M2532 951 c-17 -11 -12 -56 7 -56 8 0 19 8 25 17 13 22 -11 52 -32
39z"/>
<path d="M2448 923 c6 -2 18 -2 25 0 6 3 1 5 -13 5 -14 0 -19 -2 -12 -5z"/>
<path d="M2539 673 c-11 -13 -11 -17 -1 -21 10 -3 10 -7 1 -18 -17 -21 5 -17
24 4 21 23 21 32 1 32 -8 0 -12 5 -9 10 10 16 -1 11 -16 -7z"/>
<path d="M2770 570 c-50 -12 -115 -90 -125 -151 -10 -60 14 -109 30 -60 3 11
16 26 28 34 25 16 97 127 97 149 0 8 5 19 12 26 13 13 8 14 -42 2z m-56 -81
c-36 -37 -38 -37 -13 6 12 19 25 32 31 29 5 -3 -3 -19 -18 -35z m34 -11 c-13
-18 -24 -35 -25 -37 -2 -2 -6 -1 -10 2 -5 6 44 67 54 67 2 0 -7 -15 -19 -32z
m-38 -57 c0 -5 -7 -11 -14 -14 -10 -4 -13 -1 -9 9 6 15 23 19 23 5z"/>
<path d="M1677 292 c-26 -28 -47 -88 -47 -131 0 -39 14 -63 23 -39 2 7 7 10
11 6 4 -3 2 -15 -5 -26 -10 -16 -9 -26 7 -58 10 -21 26 -40 34 -42 12 -4 12
-1 -2 14 -30 34 -38 69 -21 87 14 13 14 19 3 32 -10 12 -16 13 -26 4 -11 -9
-14 -7 -14 12 0 13 5 42 11 64 l12 40 11 -56 c10 -46 53 -129 103 -198 2 -2 5
-2 8 1 3 2 -15 36 -39 74 -51 79 -68 128 -42 118 9 -4 16 -1 16 6 0 18 28 -7
46 -41 18 -35 18 -39 -1 -39 -30 0 -11 -49 21 -54 10 -2 25 -16 34 -33 22 -45
49 -39 89 18 18 26 31 54 29 61 -3 7 1 27 9 45 16 40 17 115 1 131 -19 19 -29
14 -22 -13 3 -14 3 -41 0 -60 -6 -33 -8 -33 -25 -17 -17 16 -17 18 1 44 10 14
18 30 18 35 0 13 -49 -51 -50 -64 0 -7 -4 -13 -9 -13 -10 0 -34 -55 -34 -78 0
-37 -54 -56 -65 -23 -3 8 0 11 6 7 36 -22 16 67 -23 104 -15 14 -28 40 -31 62
-7 43 -14 46 -37 20z m19 -64 c-15 -25 -18 -15 -10 28 7 36 8 37 14 14 4 -14
2 -33 -4 -42z m247 -49 c-5 -18 -14 -34 -21 -37 -8 -2 -7 9 3 38 8 24 16 54
17 69 1 23 2 22 5 -5 2 -18 0 -47 -4 -65z m-223 47 c0 -3 -4 -8 -10 -11 -5 -3
-10 -1 -10 4 0 6 5 11 10 11 6 0 10 -2 10 -4z m185 -45 c11 -19 -18 -61 -42
-61 -26 0 -28 7 -13 44 9 26 43 36 55 17z m25 -73 c0 -5 -16 -30 -35 -55 -40
-52 -46 -37 -13 31 13 28 26 42 35 39 7 -3 13 -9 13 -15z m-69 -47 c-15 -46
-17 -48 -28 -28 -23 41 -8 71 38 76 3 1 -2 -21 -10 -48z"/>
<path d="M1486 228 c-13 -171 -13 -228 -1 -228 7 0 15 14 19 31 3 18 24 74 46
125 42 100 51 134 23 94 -9 -13 -25 -32 -34 -41 -17 -17 -18 -15 -29 37 -6 30
-13 54 -15 54 -2 0 -6 -33 -9 -72z"/>
<path d="M2790 178 c0 -40 -3 -97 -6 -125 -8 -63 10 -74 20 -13 8 53 29 53 24
0 -2 -22 0 -40 4 -40 5 0 8 11 8 24 0 13 8 30 17 37 15 12 16 12 9 -6 -18 -44
-15 -58 4 -20 11 22 20 51 20 64 l0 23 -20 -23 c-23 -29 -25 -20 -5 27 14 34
14 35 -5 29 -24 -8 -24 -5 -5 42 23 54 18 62 -15 25 -30 -32 -30 -32 -30 -8 0
14 -4 28 -10 31 -6 4 -10 -21 -10 -67z m51 -71 c-10 -9 -11 -8 -5 6 3 10 9 15
12 12 3 -3 0 -11 -7 -18z"/>
<path d="M2452 175 c-15 -32 -14 -78 1 -130 11 -35 16 -39 48 -43 27 -2 38 1
43 13 3 9 2 14 -3 11 -10 -7 -31 38 -31 66 0 17 6 12 31 -21 26 -36 28 -45 17
-58 -11 -14 -11 -15 2 -11 10 3 16 20 18 48 5 65 -4 90 -33 90 -16 0 -30 10
-42 30 -21 37 -36 38 -51 5z m48 -25 c0 -5 -2 -10 -4 -10 -3 0 -8 5 -11 10 -3
6 -1 10 4 10 6 0 11 -4 11 -10z m-25 -30 c-3 -5 -10 -10 -16 -10 -5 0 -9 5 -9
10 0 6 7 10 16 10 8 0 12 -4 9 -10z m91 -15 c9 -36 3 -37 -24 -4 -23 28 -23
29 -3 29 14 0 23 -9 27 -25z"/>
</g>
</svg>
